<svg id="Layer_1" data-name="Layer 1" xmlns="http://www.w3.org/2000/svg" viewBox="0 0 62 216.5"><defs><style>.cls-1,.cls-2{isolation:isolate;}.cls-2{font-size:30px;font-family:OpenSans-Regular, Open Sans;letter-spacing:0.02em;}.cls-2,.cls-5{fill:#0a4133;}.cls-3,.cls-4{fill:none;}.cls-4{stroke:#8ed974;}</style></defs><g id="Group_4767" data-name="Group 4767"><g id="Scroll" class="cls-1"><text class="cls-2" transform="translate(40 79.17) rotate(-90)">Scroll</text></g><g id="Group_4810" data-name="Group 4810"><g id="Ellipse_7" data-name="Ellipse 7"><circle class="cls-3" cx="31" cy="185.5" r="31"/><circle class="cls-4" cx="31" cy="185.5" r="30.5"/></g><g id="up-arrow"><g id="Group_56" data-name="Group 56"><path id="Path_74" data-name="Path 74" class="cls-5" d="M19.19,185.88l11.49,11.49a.6.6,0,0,0,.21.14.66.66,0,0,0,.48,0,.6.6,0,0,0,.21-.14l11.49-11.49a.63.63,0,1,0-.83-1l-.07.06-10.4,10.4V97.56a.64.64,0,1,0-1.27,0v97.82L20.1,185a.64.64,0,0,0-1,.82l.09.08Z" transform="translate(0 0.48)"/></g></g></g></g></svg>