<svg id="Group_4250" data-name="Group 4250" xmlns="http://www.w3.org/2000/svg" width="48.005" height="50.187" viewBox="0 0 48.005 50.187">
  <path id="Path_3318" data-name="Path 3318" d="M11,24A24,24,0,1,1,42.3,46.868a.968.968,0,0,1-.293.045,1.06,1.06,0,0,1-.537-.147,1,1,0,0,1-.444-.559L34.968,26.995a3,3,0,0,1,.031-6,2.959,2.959,0,0,1,1.286.3l8.008-8.009A1,1,0,0,1,45.707,14.7l-8,8.013a2.943,2.943,0,0,1-.841,3.621l5.776,18.307a22.024,22.024,0,1,0-16.577-.549l.624-2.939a1,1,0,0,1,1.644-.539l6.018,5.372a1,1,0,0,1-.362,1.7L26.3,50.139a1,1,0,0,1-1.284-1.16l.613-2.884A23.924,23.924,0,0,1,11,24Zm24-1a1,1,0,1,0,1,1A1,1,0,0,0,35,23ZM31.708,46.309l-3.425-3.055-.945,4.455Z" transform="translate(-11 0)" fill="#8ed974"/>
  <path id="Path_3319" data-name="Path 3319" d="M247.672,41.758v2a1,1,0,1,1-2,0v-2a1,1,0,0,1,2,0Z" transform="translate(-222.67 -36.763)" fill="#8ed974"/>
  <path id="Path_3320" data-name="Path 3320" d="M54.813,234.617a1,1,0,1,1,0,2h-2a1,1,0,1,1,0-2Z" transform="translate(-11.809 -211.62)" fill="#8ed974"/>
  <path id="Path_3321" data-name="Path 3321" d="M420.121,236.617a1,1,0,0,1,0-2h2a1,1,0,1,1,0,2Z" transform="translate(-415.121 -211.62)" fill="#8ed974"/>
</svg>
