<svg id="Group_294" data-name="Group 294" xmlns="http://www.w3.org/2000/svg" width="34.065" height="50.187" viewBox="0 0 34.065 50.187">
  <g id="Group_292" data-name="Group 292" transform="translate(0)">
    <path id="Path_166" data-name="Path 166" d="M95.989,0a17.052,17.052,0,0,1,17.032,17.032c0,3.774-2.222,9.514-6.993,18.063-3.255,5.833-6.5,10.761-6.632,10.968l-2.342,3.55a1.276,1.276,0,0,1-2.13,0l-2.342-3.55c-.135-.205-3.352-5.09-6.633-10.968-4.771-8.549-6.993-14.288-6.993-18.063A17.052,17.052,0,0,1,95.989,0ZM88.178,33.851c3.235,5.8,6.4,10.6,6.534,10.806l1.277,1.936,1.277-1.935c.134-.2,3.324-5.055,6.535-10.807,4.425-7.93,6.669-13.589,6.669-16.819a14.48,14.48,0,0,0-28.96,0C81.509,20.263,83.753,25.921,88.178,33.851Z" transform="translate(-78.957 0)" fill="#8ed974"/>
    <path id="Path_167" data-name="Path 167" d="M162.734,73.291a9.444,9.444,0,1,1-9.443,9.444A9.454,9.454,0,0,1,162.734,73.291Zm0,16.335a6.891,6.891,0,1,0-6.891-6.891A6.9,6.9,0,0,0,162.734,89.626Z" transform="translate(-145.702 -65.809)" fill="#8ed974"/>
  </g>
</svg>
