<svg xmlns="http://www.w3.org/2000/svg" width="47.472" height="59.53" viewBox="0 0 47.472 59.53">
  <g id="Group_4758" data-name="Group 4758" transform="translate(-908.929 -632.204)">
    <path id="Path_3525" data-name="Path 3525" d="M956.386,683.364V642.178c0-.565.112-1.279-.27-1.742a.236.236,0,0,0-.025-.03l-.019-.019-3.083-3.083-4.355-4.356c-.344-.343-.64-.725-1.172-.742-.2-.007-.407,0-.61,0H912.445a3.523,3.523,0,0,0-2.161.677,3.432,3.432,0,0,0-1.354,2.736c0,.173,0,.347,0,.52v52.045a3.749,3.749,0,0,0,.264,1.472,3.42,3.42,0,0,0,3.123,2.073c.587.006,1.173,0,1.76,0h38.615a5.344,5.344,0,0,0,.9-.052,3.412,3.412,0,0,0,2.792-3.244c.013-.471,0-.945,0-1.416Zm-7.9-46.388c0-.441.006-.883,0-1.325l.143.143,1.244,1.245,1.5,1.5,1.3,1.3.273.273h-3.01a1.465,1.465,0,0,1-.914-.275,1.383,1.383,0,0,1-.541-1.105C948.48,638.146,948.481,637.561,948.481,636.976Zm-37.344-2.088c.393-.655,1.036-.666,1.689-.666h33.639c0,1.521-.024,3.044,0,4.565a3.413,3.413,0,0,0,2.749,3.28,5.757,5.757,0,0,0,1.05.06h4.1V673.8h-4.4l-4.769,0-5.779,0-6.373,0-6.389,0-6,0-5.035,0h-3.645c-.347,0-.694,0-1.042,0V636.025A2.058,2.058,0,0,1,911.138,634.888Zm43.233,53.465a1.385,1.385,0,0,1-1.387,1.364c-.1,0-.206,0-.309,0H913.092c-.26,0-.521.005-.781,0a1.384,1.384,0,0,1-1.367-1.372c0-.069,0-.139,0-.208V675.81h3.643l4.769,0,5.779,0,6.373,0,6.389,0,6,0,5.035,0h3.645c.572,0,1.144.007,1.716,0h.078V686.46c0,.6-.015,1.211,0,1.816C954.372,688.3,954.371,688.327,954.371,688.352Z" transform="translate(0 0)" fill="#094032"/>
    <path id="Path_3526" data-name="Path 3526" d="M1479.649,1196.675c1.762,0,4.422-2.353,6.365-6.317a37.715,37.715,0,0,1,6.5-1.755c1.586,1.22,3.338,2.387,4.186,2.387,2.349,0,2.843-1.359,2.843-2.5,0-2.24-2.56-2.24-3.79-2.24a22.384,22.384,0,0,0-2.749.338,27.561,27.561,0,0,1-2.266-1.955c-.722-.722-1.365-1.422-1.924-2.088a21.212,21.212,0,0,0,1.254-4.823c0-3.145-1.136-3.79-2.843-3.79-1.3,0-2.843.674-2.843,3.881,0,1.414.774,3.13,2.31,5.125-.376,1.147-.817,2.469-1.313,3.96-.239.715-.5,1.378-.772,1.99-.223.1-.439.2-.649.3-.753.376-1.469.715-2.132,1.03-3.026,1.432-5.025,2.38-5.025,4.251C1476.806,1195.834,1478.282,1196.675,1479.649,1196.675Zm16.109-8.528c1.4,0,1.8.137,1.9.345,0,.426,0,.6-.879.608a6.979,6.979,0,0,1-1.592-.909C1495.449,1188.162,1495.646,1188.147,1495.757,1188.147Zm-6.355-2.173c.178.178.618.577,1.2,1.078-1.168.255-2.411.57-3.6.947q.089-.247.172-.5c.352-1.055.668-2,.95-2.855Q1488.721,1185.294,1489.4,1185.975Zm-3.12-8.16c0-1.986.616-1.986.948-1.986.67,0,.948,0,.948,1.9a15.194,15.194,0,0,1-.754,2.959A5.82,5.82,0,0,1,1486.282,1177.815Zm-3.64,14.122.375-.177c-1.423,2.063-2.831,3.02-3.368,3.02a1.5,1.5,0,0,1-.948-.3C1478.7,1193.8,1480.7,1192.855,1482.642,1191.937Z" transform="translate(-555.519 -529.941)" fill="#95db7b"/>
    <path id="Path_3527" data-name="Path 3527" d="M1459.163,2741.739h-4.422v9.424h1.625v-3.531h2.8a2.848,2.848,0,0,0,2.1-.745,2.922,2.922,0,0,0,.746-2.149,2.991,2.991,0,0,0-.8-2.2A2.782,2.782,0,0,0,1459.163,2741.739Zm.75,4.118a1.358,1.358,0,0,1-1.013.361h-2.533v-3.065h2.533a1.431,1.431,0,0,1,1.066.414,1.618,1.618,0,0,1,.361,1.172A1.5,1.5,0,0,1,1459.913,2745.857Z" transform="translate(-533.934 -2063.629)" fill="#094032"/>
    <path id="Path_3528" data-name="Path 3528" d="M1843.138,2741.739h-3.368v9.424h3.368a3.777,3.777,0,0,0,2.781-1.062,4.85,4.85,0,0,0,1.273-3.572,4.941,4.941,0,0,0-1.22-3.624A3.874,3.874,0,0,0,1843.138,2741.739Zm1.435,7.438a2,2,0,0,1-1.488.572H1841.4v-6.6h1.691a2.105,2.105,0,0,1,1.54.677,3.687,3.687,0,0,1,.888,2.7A3.6,3.6,0,0,1,1844.573,2749.177Z" transform="translate(-910.584 -2063.629)" fill="#094032"/>
    <path id="Path_3529" data-name="Path 3529" d="M2249.016,2751.164h1.625v-4.058h3.794v-1.414h-3.794v-2.538h4.848v-1.415h-6.473Z" transform="translate(-1310.925 -2063.63)" fill="#094032"/>
  </g>
</svg>
