<svg id="Layer_1" data-name="Layer 1" xmlns="http://www.w3.org/2000/svg" viewBox="0 0 70.8 70.8"><defs><style>.cls-1{fill:#0a4133;}.cls-2{fill:#2e2e2e;}</style></defs><g id="Group_4618" data-name="Group 4618"><path id="Path_927" data-name="Path 927" class="cls-1" d="M35.4,70.8A35.4,35.4,0,1,1,70.8,35.4h0A35.43,35.43,0,0,1,35.4,70.8Zm0-69.43a34,34,0,1,0,34,34A34,34,0,0,0,35.4,1.37Z" transform="translate(0 0)"/><g id="Group_4624" data-name="Group 4624"><path id="Path_931" data-name="Path 931" class="cls-2" d="M35.85,47.32a2.2,2.2,0,0,0-2.19,2.19V60.92a.78.78,0,1,0,1.55,0h0V49.51a.65.65,0,0,1,1.29,0V60.92a.77.77,0,1,0,1.54,0h0V49.51A2.19,2.19,0,0,0,35.85,47.32Z" transform="translate(0 0)"/><path id="Path_932" data-name="Path 932" class="cls-2" d="M53.05,15.06H51a2.55,2.55,0,0,0-2.54,2.54v2.06a2.8,2.8,0,0,0-3.8,1.08A2.85,2.85,0,0,0,44.27,22H27.33a2.76,2.76,0,0,0-3.07-2.41,3.11,3.11,0,0,0-1,.31V17.6a2.54,2.54,0,0,0-2.54-2.54H18.65a2.53,2.53,0,0,0-2.53,2.54v7.33a2.54,2.54,0,0,0,2.53,2.54h2.09a2.47,2.47,0,0,0,1-.21v2.23a2.72,2.72,0,0,0,.91,2.17l6.93,7.54V60.92a.77.77,0,1,0,1.54,0v-22a.79.79,0,0,0-.2-.53l-7.2-7.82a1.33,1.33,0,0,1-.44-1.09l0-7.11a1.26,1.26,0,0,1,2.51,0h0v.37s0,0,0,0v0l0,6a.78.78,0,0,0,.2.53l3.82,4.16a.77.77,0,0,0,.57.25h10.8a.79.79,0,0,0,.57-.25l3.84-4.19a.75.75,0,0,0,.2-.53l0-6s0,0,0,0,0,0,0,0v-.47a1.36,1.36,0,0,1,1-1.35,1.3,1.3,0,0,1,1.61.91,1.33,1.33,0,0,1,0,.34l0,7.14a.91.91,0,0,0,0,.23,1.36,1.36,0,0,1-.53,1.12l-7.11,7.74a.77.77,0,0,0-.2.52v22a.78.78,0,0,0,1.55,0h0V39.2L49,31.75a2.82,2.82,0,0,0,1-2.2.41.41,0,0,0,0-.12V27.26a2.49,2.49,0,0,0,1,.21h2.09a2.54,2.54,0,0,0,2.54-2.54V17.6A2.54,2.54,0,0,0,53.05,15.06ZM21.74,24.93a1,1,0,0,1-1,1H18.66a1,1,0,0,1-1-1V17.6a1,1,0,0,1,1-1h2.09a1,1,0,0,1,1,1Zm11,3.94A3.08,3.08,0,1,1,35.86,32a3.08,3.08,0,0,1-3.08-3.08Zm8.07,3.31H39.07a4.62,4.62,0,1,0-6.53-.1l.1.1H30.73l-3.39-3.69,0-5H44.24l0,4.93Zm13.2-7.25a1,1,0,0,1-1,1H51a1,1,0,0,1-1-1V17.6a1,1,0,0,1,1-1h2.09a1,1,0,0,1,1,1Z" transform="translate(0 0)"/></g></g></svg>