<svg id="Layer_1" data-name="Layer 1" xmlns="http://www.w3.org/2000/svg" viewBox="0 0 70.8 70.8"><defs><style>.cls-1{fill:#0a4133;}</style></defs><g id="Group_4618" data-name="Group 4618"><g id="Group_4615" data-name="Group 4615"><g id="Group_4614" data-name="Group 4614"><path id="Path_925" data-name="Path 925" class="cls-1" d="M53.57,52.6h-12L33.42,40.81,32.3,39.19V52.6h-12a3.39,3.39,0,0,0,1.1-2.38V20.59a3.37,3.37,0,0,0-1.1-2.38h12V30.34l1.05-1.05L44.46,18.21H51.4a10.24,10.24,0,0,0-1.6,1.34l0,0L36.61,33l.7,1L39,32.29,51.77,50.63A10.86,10.86,0,0,0,53.57,52.6Z" transform="translate(0 0)"/></g></g><g id="Group_4617" data-name="Group 4617"><g id="Group_4616" data-name="Group 4616"><path id="Path_926" data-name="Path 926" class="cls-1" d="M35.4,68A32.55,32.55,0,1,1,68,35.4,32.54,32.54,0,0,1,35.4,68Zm0-60.8A28.26,28.26,0,1,0,63.66,35.4h0A28.29,28.29,0,0,0,35.4,7.15Z" transform="translate(0 0)"/></g></g><path id="Path_927" data-name="Path 927" class="cls-1" d="M35.4,70.8A35.4,35.4,0,1,1,70.8,35.4h0A35.43,35.43,0,0,1,35.4,70.8Zm0-69.43a34,34,0,1,0,34,34A34,34,0,0,0,35.4,1.37Z" transform="translate(0 0)"/></g></svg>