<svg id="Layer_1" data-name="Layer 1" xmlns="http://www.w3.org/2000/svg" viewBox="0 0 74 74"><defs><style>.cls-1,.cls-2{fill:none;stroke:#2e2e2e;stroke-linecap:round;stroke-miterlimit:10;}.cls-1{stroke-width:2px;}.cls-2{stroke-width:3px;}</style></defs><g id="Group_4627" data-name="Group 4627"><circle id="Ellipse_444" data-name="Ellipse 444" class="cls-1" cx="37" cy="37" r="36"/><g id="Group_4625" data-name="Group 4625"><path id="Path_933" data-name="Path 933" class="cls-2" d="M54.52,25a5.47,5.47,0,0,0-10.69,0"/><path id="Path_934" data-name="Path 934" class="cls-2" d="M31.41,25a5.47,5.47,0,0,0-10.69,0"/></g><g id="Group_4626" data-name="Group 4626"><path id="Path_935" data-name="Path 935" class="cls-2" d="M37.09,57.78c4.3-5.39,5.72-12.64,8.33-16.78,1.74-2.77,5.16-4.74,8.32-3.37C59,39.92,58,46,55.88,49.28a15.73,15.73,0,0,1-6.42,5.79A26.18,26.18,0,0,1,18.8,49.58"/><path id="Path_936" data-name="Path 936" class="cls-2" d="M49.9,44.79a30.61,30.61,0,0,1-7.82,12.67"/></g></g></svg>