<svg id="Layer_1" data-name="Layer 1" xmlns="http://www.w3.org/2000/svg" viewBox="0 0 69.69 69.69"><defs><style>.cls-1{fill:#0a4133;}</style></defs><g id="Group_4621" data-name="Group 4621"><path id="Path_928" data-name="Path 928" class="cls-1" d="M30.35,47.34a1.1,1.1,0,0,1-.77-.32L18.34,35.78a1.08,1.08,0,0,1,0-1.52l3.86-4.1a1.1,1.1,0,0,1,1.55-.05l0,0,6.72,6.72,22-22a1.09,1.09,0,0,1,1.54,0h0l3.87,3.86a1.11,1.11,0,0,1,0,1.55h0L31.12,47A1.1,1.1,0,0,1,30.35,47.34ZM20.63,35l9.72,9.72,25.19-25.2-2.32-2.32-22,22a1.08,1.08,0,0,1-1.54,0L23,32.47Z" transform="translate(-0.01 -0.01)"/><path id="Path_929" data-name="Path 929" class="cls-1" d="M34.85,62a27.15,27.15,0,1,1,15-49.77A1.09,1.09,0,0,1,48.64,14a24.93,24.93,0,1,0,9.29,11.28,1.09,1.09,0,1,1,2-.9s0,0,0,.06A27.15,27.15,0,0,1,34.85,62Z" transform="translate(-0.01 -0.01)"/><path id="Path_930" data-name="Path 930" class="cls-1" d="M34.85,69.7a5.36,5.36,0,0,1-4.32-2.15,3.22,3.22,0,0,0-4.21-.84,5.4,5.4,0,0,1-7.39-1.9,5.52,5.52,0,0,1-.58-1.4A3.22,3.22,0,0,0,14.78,61a5.4,5.4,0,0,1-6.1-4.59,5.46,5.46,0,0,1,0-1.51A3.21,3.21,0,0,0,6.3,51.36a5.4,5.4,0,0,1-3.88-6.58A5.52,5.52,0,0,1,3,43.38a3.23,3.23,0,0,0-.84-4.21,5.4,5.4,0,0,1-1.07-7.56,6,6,0,0,1,1.07-1.07A3.22,3.22,0,0,0,3,26.33a5.39,5.39,0,0,1,1.9-7.39,5.18,5.18,0,0,1,1.4-.58,3.22,3.22,0,0,0,2.38-3.57,5.4,5.4,0,0,1,6.1-6.1A3.22,3.22,0,0,0,18.35,6.3a5.4,5.4,0,0,1,6.58-3.87A5.29,5.29,0,0,1,26.32,3a3.21,3.21,0,0,0,4.21-.83A5.4,5.4,0,0,1,34.85,0h0a5.37,5.37,0,0,1,4.31,2.16A3.21,3.21,0,0,0,43.37,3a5.41,5.41,0,0,1,7.4,1.91,5.31,5.31,0,0,1,.58,1.39,3.22,3.22,0,0,0,3.57,2.39A5.4,5.4,0,0,1,61,13.28a5.46,5.46,0,0,1,0,1.51,3.22,3.22,0,0,0,2.38,3.57,5.39,5.39,0,0,1,3.88,6.58,5.31,5.31,0,0,1-.58,1.39,3.22,3.22,0,0,0,.84,4.21,5.4,5.4,0,0,1,0,8.63,3.23,3.23,0,0,0-.84,4.21,5.4,5.4,0,0,1-1.9,7.4,5.52,5.52,0,0,1-1.4.58A3.21,3.21,0,0,0,61,54.92a5.4,5.4,0,0,1-4.6,6.1,4.72,4.72,0,0,1-1.5,0,3.22,3.22,0,0,0-3.57,2.39,5.41,5.41,0,0,1-6.58,3.88,5.52,5.52,0,0,1-1.4-.58,3.23,3.23,0,0,0-4.21.84A5.33,5.33,0,0,1,34.85,69.7ZM28,64.08a5.42,5.42,0,0,1,4.32,2.15,3.21,3.21,0,0,0,4.51.64,2.94,2.94,0,0,0,.63-.64,5.42,5.42,0,0,1,7.06-1.4,3.23,3.23,0,0,0,4.76-2,5.38,5.38,0,0,1,6-4,3.23,3.23,0,0,0,3.64-2.74,3.39,3.39,0,0,0,0-.9,5.41,5.41,0,0,1,4-6,3.21,3.21,0,0,0,2.31-3.92,3.16,3.16,0,0,0-.34-.83,5.39,5.39,0,0,1,1.4-7.06,3.22,3.22,0,0,0,0-5.15,5.39,5.39,0,0,1-1.4-7.06,3.23,3.23,0,0,0-1.14-4.41,3.16,3.16,0,0,0-.83-.34,5.42,5.42,0,0,1-4-6,3.22,3.22,0,0,0-2.74-3.64,3.39,3.39,0,0,0-.9,0,5.38,5.38,0,0,1-6-4,3.22,3.22,0,0,0-3.92-2.31,3.09,3.09,0,0,0-.84.34,5.4,5.4,0,0,1-7.06-1.4h0a3.22,3.22,0,0,0-4.51-.63,3.13,3.13,0,0,0-.63.63,5.4,5.4,0,0,1-7.06,1.4A3.22,3.22,0,0,0,20.81,6a3.18,3.18,0,0,0-.35.83,5.39,5.39,0,0,1-6,4,3.22,3.22,0,0,0-3.64,2.74,2.72,2.72,0,0,0,0,.9,5.42,5.42,0,0,1-4,6,3.23,3.23,0,0,0-2.32,3.92,3.18,3.18,0,0,0,.35.83,5.4,5.4,0,0,1-1.4,7.06,3.22,3.22,0,0,0-.64,4.51,3.53,3.53,0,0,0,.64.64,5.4,5.4,0,0,1,1.4,7.06A3.21,3.21,0,0,0,6,48.9a3.54,3.54,0,0,0,.83.34,5.41,5.41,0,0,1,4,6,3.21,3.21,0,0,0,2.73,3.64,2.78,2.78,0,0,0,.91,0,5.4,5.4,0,0,1,6,4,3.22,3.22,0,0,0,3.92,2.32,3.11,3.11,0,0,0,.84-.35A5.37,5.37,0,0,1,28,64.08Z" transform="translate(-0.01 -0.01)"/></g></svg>