<svg xmlns="http://www.w3.org/2000/svg" width="44.041" height="51.487" viewBox="0 0 44.041 51.487">
  <g id="secure-shield" transform="translate(-37.181 0.518)">
    <g id="Group_4626" data-name="Group 4626" transform="translate(37.681 0)">
      <g id="Group_4625" data-name="Group 4625" transform="translate(0 0)">
        <path id="Path_526" data-name="Path 526" d="M79.941,8.715A83.954,83.954,0,0,1,59.742.147a1.061,1.061,0,0,0-1.079,0,81.655,81.655,0,0,1-20.2,8.568,1.062,1.062,0,0,0-.781,1.024V20.586a31.207,31.207,0,0,0,9.477,22.8C51.812,47.948,57.233,50.47,59.2,50.47s7.39-2.522,12.044-7.083a31.207,31.207,0,0,0,9.476-22.8V9.739A1.061,1.061,0,0,0,79.941,8.715ZM78.6,20.586A29.126,29.126,0,0,1,69.76,41.87c-4.577,4.485-9.47,6.476-10.558,6.476S53.22,46.355,48.644,41.87A29.126,29.126,0,0,1,39.8,20.586V10.545A83.611,83.611,0,0,0,59.2,2.292a86.257,86.257,0,0,0,19.4,8.253Z" transform="translate(-37.681 0)" fill="#0a4133" stroke="#0a4133" stroke-width="1"/>
        <path id="Path_527" data-name="Path 527" d="M88.234,99.616a1.062,1.062,0,0,0-1.377-.6c-1.9.747-3.843,1.435-5.786,2.045a1.062,1.062,0,0,0-.744,1.013v4.1a1.062,1.062,0,1,0,2.123,0v-3.324c1.743-.564,3.484-1.188,5.185-1.858A1.061,1.061,0,0,0,88.234,99.616Z" transform="translate(-76.123 -89.19)" fill="#8ed974"/>
        <path id="Path_528" data-name="Path 528" d="M171.266,88.335a1.062,1.062,0,0,0,.426-.089l.02-.008a1.062,1.062,0,1,0-.857-1.942l-.017.007a1.061,1.061,0,0,0,.429,2.033Z" transform="translate(-157.139 -77.707)" fill="#8ed974"/>
        <path id="Path_529" data-name="Path 529" d="M311.314,345.7a1.062,1.062,0,0,0-1.47.308,25.843,25.843,0,0,1-3.051,3.811,27.118,27.118,0,0,1-3.045,2.709,1.062,1.062,0,1,0,1.287,1.689,29.263,29.263,0,0,0,3.284-2.922,27.936,27.936,0,0,0,3.3-4.125A1.062,1.062,0,0,0,311.314,345.7Z" transform="translate(-277.145 -311.468)" fill="#8ed974"/>
        <path id="Path_530" data-name="Path 530" d="M277.154,432.112l-.061.036a1.062,1.062,0,1,0,1.064,1.837l.07-.041a1.062,1.062,0,1,0-1.073-1.832Z" transform="translate(-253.016 -389.385)" fill="#8ed974"/>
        <path id="Path_531" data-name="Path 531" d="M128.713,162.428a3.452,3.452,0,0,0-4.882,4.882l6.269,6.269a3.453,3.453,0,0,0,4.882,0l13.087-13.087a3.452,3.452,0,0,0-4.883-4.882l-10.645,10.645Zm15.975-5.316a1.329,1.329,0,1,1,1.88,1.879L133.48,172.077a1.33,1.33,0,0,1-1.88,0l-6.269-6.269a1.329,1.329,0,0,1,1.88-1.88l4.578,4.578a1.062,1.062,0,0,0,1.5,0Z" transform="translate(-114.429 -139.36)" fill="#8ed974"/>
      </g>
    </g>
  </g>
</svg>
