<svg id="Group_4575" data-name="Group 4575" xmlns="http://www.w3.org/2000/svg" viewBox="0 0 254.13 139.25"><defs><style>.cls-1{fill:#fff;}</style></defs><path id="Path_1" data-name="Path 1" class="cls-1" d="M217.35,99.4A17.76,17.76,0,0,1,185.7,83.28h0c7.28-14.29,27.4-12,32.54,2.06l0,.08,1.18,6.72-24.62,4.35c3.49,4.16,11,5.12,14.25-1.3ZM207,84.9a8.42,8.42,0,0,0-12.82,2.26Z" transform="translate(0 0.01)"/><path id="Path_2" data-name="Path 2" class="cls-1" d="M111.6,99.4A17.75,17.75,0,1,1,80,83.28c7.28-14.29,27.39-12,32.54,2.06v.08l1.19,6.72L89.07,96.49c3.5,4.16,11,5.12,14.25-1.3ZM101.23,84.9a8.39,8.39,0,0,0-11.84.88,7.79,7.79,0,0,0-1,1.38Z" transform="translate(0 0.01)"/><path id="Path_3" data-name="Path 3" class="cls-1" d="M222.59,109.12h7.81v-8.21l5-5.76,8,13.94,10.73,0L241.65,88.18l12.15-14H243L230.4,89V65.59h-7.81Z" transform="translate(0 0.01)"/><path id="Path_4" data-name="Path 4" class="cls-1" d="M170.31,109.12V92.58c0-9.63-8.8-9.5-9.4-9.49-3.63,0-7.66,3.31-7.66,9.49v16.54H144V92.58c0-9.63-8.81-9.5-9.4-9.49-3.64,0-7.66,3.31-7.66,9.49v16.54h-9.3V92.58c0-10.16,7-18.73,16.8-18.78a18.16,18.16,0,0,1,14.14,5.77,15.92,15.92,0,0,1,12.22-5.77c10.67-.26,18.85,7.4,18.85,18.78v16.54Z" transform="translate(0 0.01)"/><path id="Path_5" data-name="Path 5" class="cls-1" d="M17.76,99.83a8.47,8.47,0,1,1,8.46-8.47h0a8.47,8.47,0,0,1-8.46,8.47m0,9.3A17.76,17.76,0,1,0,9.3,75.75V64.59H0V91.36a17.76,17.76,0,0,0,17.75,17.76h0" transform="translate(0 0.01)"/><path id="Path_6" data-name="Path 6" class="cls-1" d="M56.58,82.9a8.46,8.46,0,1,1-8.46,8.46h0a8.46,8.46,0,0,1,8.46-8.46h0m0-9.3A17.76,17.76,0,1,0,65,107h9.3V91.36A17.76,17.76,0,0,0,56.59,73.6" transform="translate(0 0.01)"/><path id="Path_7" data-name="Path 7" class="cls-1" d="M253.43,138.93v-10.7a6,6,0,0,0-1.5-4.54,6.27,6.27,0,0,0-4.51-1.43,6.74,6.74,0,0,0-3.09.68,5.08,5.08,0,0,0-2.09,1.86h-.15a14.85,14.85,0,0,0,.12-2.11v-7h-2.48v23.28h2.48v-8.58c0-2.13.4-3.67,1.19-4.6a4.65,4.65,0,0,1,3.78-1.41,3.72,3.72,0,0,1,2.86,1,4.28,4.28,0,0,1,.91,3v10.61Zm-17.6-.56v-2.2a11.06,11.06,0,0,1-4.2.89,4.24,4.24,0,0,1-3.61-1.62,7.54,7.54,0,0,1-1.22-4.64c0-4.25,1.66-6.37,5-6.37a8.34,8.34,0,0,1,1.72.21,12.86,12.86,0,0,1,1.8.55l.76-2.11a7.49,7.49,0,0,0-1.86-.6,11,11,0,0,0-2.36-.25,7.16,7.16,0,0,0-5.65,2.24,9.3,9.3,0,0,0-2,6.36,9,9,0,0,0,2,6.2,7,7,0,0,0,5.52,2.19,9,9,0,0,0,4.14-.85M217.2,125.55a5.47,5.47,0,0,1,1,3.6h-8.57a5.92,5.92,0,0,1,1.39-3.56,4,4,0,0,1,3.14-1.28,3.68,3.68,0,0,1,3,1.25m.51,13.42a12.74,12.74,0,0,0,2.49-.82V136a13.08,13.08,0,0,1-5.23,1.1,5,5,0,0,1-3.9-1.5,6.45,6.45,0,0,1-1.46-4.38h11.3v-1.56a7.76,7.76,0,0,0-1.8-5.35,6.18,6.18,0,0,0-4.88-2,6.47,6.47,0,0,0-5.24,2.33,9.49,9.49,0,0,0-2,6.3,8.58,8.58,0,0,0,2.1,6.15,7.55,7.55,0,0,0,5.74,2.22,14.28,14.28,0,0,0,2.84-.25m-16.55-19.67h6.93v-2.26h-16.4v2.26h6.93v19.62h2.54Z" transform="translate(0 0.01)"/><path id="Path_8" data-name="Path 8" class="cls-1" d="M75.25,74.46A19.2,19.2,0,0,1,72,73.13,7.85,7.85,0,0,1,74,59.05a7.36,7.36,0,0,1,5.81.47,1.19,1.19,0,0,0,1.49-.24A164,164,0,0,0,96.38,46.15c2.4-2.42,4.56-5.08,6.84-7.6a.86.86,0,0,0,.11-1.12,10.33,10.33,0,0,1,3.17-13.15,10.46,10.46,0,0,1,5.75-1.93c.52,0,.75-.15.83-.69a33.46,33.46,0,0,0,.16-8,1.2,1.2,0,0,0-.72-.77,7.11,7.11,0,0,1-3.92-3.21,5.63,5.63,0,0,1-.79-4.1A7,7,0,0,1,113.57.05,6.55,6.55,0,0,1,121,5.65a7.31,7.31,0,0,1,0,1.24,6.74,6.74,0,0,1-5.48,6.25c-.22,0-.55.23-.58.39a42,42,0,0,0-.62,8.88,9.32,9.32,0,0,1,4.65,2,21.74,21.74,0,0,1,2.64,2.95,1.18,1.18,0,0,0,1.1.58,87.53,87.53,0,0,0,12.82-1.37c2.7-.5,5.37-1.16,8.06-1.73.51-.11.57-.43.62-.87a12.07,12.07,0,0,1,5.18-9A11.91,11.91,0,0,1,162,13.91a11.76,11.76,0,0,1,7,10.72,12,12,0,0,1-6.4,11.52,12.37,12.37,0,0,1-16.85-4.71L145.6,31c-.33-.64-.54-1.34-.86-2a1,1,0,0,0-.65-.5,54.29,54.29,0,0,0-11,.45c-2.63.44-5.24,1-7.86,1.5a9,9,0,0,0-1.84.51,1,1,0,0,0-.36.79,10.55,10.55,0,0,1-2.42,7.66c-.35.43-1,.85-1,1.26s.55,1.05.91,1.55a48.89,48.89,0,0,0,6.8,7.85A23.33,23.33,0,0,1,130.68,49a7.72,7.72,0,0,1,9.14,6,8.35,8.35,0,0,1,.16,1.93,7.82,7.82,0,0,1-7.3,7.63,7.71,7.71,0,0,1-8.11-5.87,7.54,7.54,0,0,1,1.33-6.75.67.67,0,0,0,0-1h0a67.86,67.86,0,0,0-7.21-8.66,1,1,0,0,0-1.37-.23,10.18,10.18,0,0,1-7,.78,13.61,13.61,0,0,1-2.84-1,.83.83,0,0,0-1,0A91.88,91.88,0,0,0,94.6,51.48C90.92,55,87.4,58.6,83.81,62.16a1.08,1.08,0,0,0-.28,1.39,7.78,7.78,0,0,1-4.15,10.19,7.58,7.58,0,0,1-1.3.42,7.45,7.45,0,0,0-.91.3Z" transform="translate(0 0.01)"/></svg>